<?xml version="1.0" encoding="UTF-8"?>
<svg version="1.1" xmlns="http://www.w3.org/2000/svg" width="500" height="500">
<path d="M0 0 C1.14284454 -0.00960754 2.28568909 -0.01921509 3.46316528 -0.02911377 C4.69847992 -0.03336365 5.93379456 -0.03761353 7.20654297 -0.04199219 C9.13166214 -0.0505423 9.13166214 -0.0505423 11.09567261 -0.05926514 C13.82094719 -0.0697689 16.54619241 -0.07561248 19.27148438 -0.07910156 C22.03138713 -0.08345091 24.79097103 -0.09720257 27.55078125 -0.12011719 C48.49202699 -0.29049874 70.09067007 -0.45539739 89.32373047 9.16113281 C100.06959254 10.04217796 108.52312271 8.91494904 117.19873047 2.34863281 C120.32373047 0.16113281 120.32373047 0.16113281 122.44091797 0.36816406 C124.32373047 1.16113281 124.32373047 1.16113281 125.57373047 3.66113281 C127.85117201 14.28919333 125.04668925 23.04375436 119.32373047 32.16113281 C119.97599609 32.65742187 120.62826172 33.15371094 121.30029297 33.66503906 C134.14416653 43.64840391 140.08899555 52.82165794 142.32373047 69.16113281 C143.49970637 82.93068111 141.37347926 96.5724613 139.32373047 110.16113281 C140.25958984 110.30292969 141.19544922 110.44472656 142.15966797 110.59082031 C146.21274779 111.32137544 149.0119367 112.3431099 151.48779297 115.77441406 C155.78887075 122.99960587 156.11600039 129.8883608 155.32373047 138.16113281 C152.26970947 149.606576 145.32408393 158.5866026 136.51123047 166.22363281 C130.36721053 172.14792164 129.82149101 177.50800433 128.90576172 185.59863281 C126.92405941 203.0993805 116.97239483 217.70240425 106.32373047 231.16113281 C107.20673828 231.19851562 108.08974609 231.23589844 108.99951172 231.27441406 C124.01382845 232.09689543 137.1081871 235.42778528 148.34326172 245.90722656 C153.58384902 251.87136635 156.44567936 259.03051872 156.45654297 266.93457031 C156.45783203 267.84207031 156.45912109 268.74957031 156.46044922 269.68457031 C156.45658203 270.62558594 156.45271484 271.56660156 156.44873047 272.53613281 C156.45259766 273.46941406 156.45646484 274.40269531 156.46044922 275.36425781 C156.45377528 280.07605963 156.29994955 284.52796607 155.32373047 289.16113281 C156.33306641 289.27457031 157.34240234 289.38800781 158.38232422 289.50488281 C174.2317536 292.14383637 193.55957245 303.41263713 203.77294922 315.93847656 C205.32719636 317.41363012 205.32719636 317.41363012 207.86279297 317.23535156 C209.39033203 317.04392578 209.39033203 317.04392578 210.94873047 316.84863281 C235.5437081 314.41916221 255.72058295 318.61100142 277.32373047 331.16113281 C278.12552734 331.62132812 278.92732422 332.08152344 279.75341797 332.55566406 C297.38359737 343.44120188 310.71589081 363.47614859 316.52539062 383.16845703 C318.24684637 390.65502264 317.9508546 398.47967122 317.90014648 406.11669922 C317.88628542 409.02460483 317.92045089 411.92927851 317.95849609 414.83691406 C318.04759144 436.55778026 310.81453143 452.17803231 297.32373047 469.16113281 C296.78232422 469.87011719 296.24091797 470.57910156 295.68310547 471.30957031 C284.90710217 484.64351379 265.16035717 498.42470877 247.74305725 500.46316528 C244.92124388 500.6037292 242.11387111 500.65536674 239.28857422 500.66503906 C238.25164932 500.67502426 237.21472443 500.68500946 236.14637756 500.69529724 C233.96049964 500.71041246 231.77455318 500.71752509 229.58862305 500.71704102 C226.2940439 500.72356781 223.00253892 500.77802686 219.70849609 500.83496094 C195.60052055 501.02910919 177.28142875 492.05858409 159.81689453 475.65869141 C150.12945376 465.94273953 143.10667754 453.91565834 138.32373047 441.16113281 C-20.57126953 440.66613281 -20.57126953 440.66613281 -182.67626953 440.16113281 C-182.67626953 388.10081209 -181.09766673 357.89107237 -147.67626953 322.16113281 C-146.80357422 321.21109375 -145.93087891 320.26105469 -145.03173828 319.28222656 C-131.76838556 305.19135898 -114.17477333 292.23984394 -94.67626953 289.16113281 C-94.99853516 288.03320312 -95.32080078 286.90527344 -95.65283203 285.74316406 C-98.7412951 273.31551666 -97.65672052 260.14516176 -91.46142578 248.96972656 C-85.02863272 239.14340209 -73.78359643 234.49273413 -62.67626953 232.16113281 C-56.70129061 231.25238602 -50.6962851 230.6746246 -44.67626953 230.16113281 C-45.16095703 229.62488281 -45.64564453 229.08863281 -46.14501953 228.53613281 C-57.44111845 215.32838639 -66.97486985 195.55615677 -66.73876953 177.84863281 C-66.72974609 176.965625 -66.72072266 176.08261719 -66.71142578 175.17285156 C-66.69982422 174.50898438 -66.68822266 173.84511719 -66.67626953 173.16113281 C-67.24990234 172.89945313 -67.82353516 172.63777344 -68.41455078 172.36816406 C-79.017872 166.70939678 -88.0936356 154.20428642 -92.08642578 142.96191406 C-93.75971497 135.01656077 -94.45242957 124.78150413 -90.01611328 117.64550781 C-87.53153335 114.89291197 -85.09445452 113.62606924 -81.67626953 112.16113281 C-80.35626953 112.16113281 -79.03626953 112.16113281 -77.67626953 112.16113281 C-77.78455078 110.32615234 -77.78455078 110.32615234 -77.89501953 108.45410156 C-80.58818114 60.76031049 -80.58818114 60.76031049 -68.67626953 43.16113281 C-61.45907492 35.3869064 -52.18434147 31.0748782 -41.67626953 30.16113281 C-41.28761719 28.82695313 -41.28761719 28.82695313 -40.89111328 27.46582031 C-36.62172647 15.85198995 -25.53723367 8.26291608 -14.73876953 3.22363281 C-9.6614977 1.01774888 -5.55031394 0.03779478 0 0 Z M-24.27783203 25.20410156 C-28.04983321 30.48279595 -31.06475213 35.54515644 -30.67626953 42.16113281 C-31.28212891 42.12632813 -31.88798828 42.09152344 -32.51220703 42.05566406 C-41.33863932 41.7705024 -49.80247339 43.24647101 -56.67626953 49.16113281 C-66.24092259 60.69337165 -65.05603732 75.27922558 -64.86376953 89.34863281 C-64.84869534 91.27375255 -64.83501178 93.19888371 -64.82275391 95.12402344 C-64.78996519 99.80334566 -64.73833396 104.48211107 -64.67626953 109.16113281 C-59.72626953 111.14113281 -54.77626953 113.12113281 -49.67626953 115.16113281 C-49.67626953 114.50113281 -49.67626953 113.84113281 -49.67626953 113.16113281 C-48.00960286 112.49446615 -46.3429362 111.82779948 -44.67626953 111.16113281 C-43.89251953 110.81050781 -43.10876953 110.45988281 -42.30126953 110.09863281 C-26.40537214 104.4215266 2.63207404 105.4106151 18.07373047 112.41113281 C21.06435395 114.09492923 22.91377958 115.68317553 24.88623047 118.47363281 C27.56720626 121.42958048 28.09777419 121.65897907 31.88623047 121.91113281 C34.23696207 121.84114148 34.23696207 121.84114148 36.32373047 121.16113281 C38.47123043 118.39874415 38.47123043 118.39874415 40.32373047 115.16113281 C52.23030019 106.77546745 68.79306673 107.95584353 82.66772461 107.92089844 C85.0176014 107.91110626 87.36663251 107.879939 89.71630859 107.84863281 C91.23518372 107.84210789 92.75406495 107.83685542 94.27294922 107.83300781 C94.96273361 107.82066101 95.65251801 107.80831421 96.36320496 107.79559326 C103.08260298 107.82593489 109.19533874 109.67379005 114.32373047 114.16113281 C116.1396442 113.3773282 117.95138454 112.58384834 119.76123047 111.78613281 C120.77056641 111.34527344 121.77990234 110.90441406 122.81982422 110.45019531 C125.44516594 109.41036995 125.44516594 109.41036995 126.32373047 107.16113281 C131.30175515 78.53987325 131.30175515 78.53987325 122.64404297 51.74316406 C116.51706947 44.52490559 111.511783 42.2040473 102.13623047 41.09863281 C101.38664063 41.00775391 100.63705078 40.916875 99.86474609 40.82324219 C98.01807512 40.59975971 96.17094493 40.38007768 94.32373047 40.16113281 C95.14873047 39.21238281 95.97373047 38.26363281 96.82373047 37.28613281 C100.78014185 32.6766296 104.55048484 27.9207853 108.32373047 23.16113281 C104.70437597 21.97839535 101.53569242 22.26232923 97.76123047 22.47363281 C91.44389907 22.63875108 86.21211092 21.46849578 80.26123047 19.41113281 C51.77266245 9.58578613 -1.15465975 -0.79479519 -24.27783203 25.20410156 Z M-39.67626953 121.16113281 C-43.03051968 125.92220217 -42.93634039 129.60911823 -42.02001953 135.23730469 C-41.86533203 136.05779297 -41.71064453 136.87828125 -41.55126953 137.72363281 C-41.41978516 138.54798828 -41.28830078 139.37234375 -41.15283203 140.22167969 C-40.17492667 145.88538155 -39.09109207 151.26843407 -34.36376953 154.97363281 C-28.62890571 157.50764241 -22.52896444 157.37214344 -16.36376953 157.41113281 C-15.56003906 157.43175781 -14.75630859 157.45238281 -13.92822266 157.47363281 C-6.64301827 157.52052069 -0.30655667 156.66266464 5.11669922 151.50488281 C7.770599 147.81606459 9.73177926 143.77359103 11.63623047 139.66113281 C11.99523437 138.92765625 12.35423828 138.19417969 12.72412109 137.43847656 C14.7144753 133.19996989 15.87469229 129.94580128 15.32373047 125.16113281 C13.47995636 122.1243284 10.73165913 121.40612271 7.37792969 120.56225586 C-0.89471755 118.94685778 -9.34305256 118.97848302 -17.73876953 118.97363281 C-18.85832031 118.96138672 -19.97787109 118.94914062 -21.13134766 118.93652344 C-30.6486154 118.66658231 -30.6486154 118.66658231 -39.67626953 121.16113281 Z M66.19873047 120.97363281 C65.35697266 121.04388672 64.51521484 121.11414063 63.64794922 121.18652344 C58.09312474 121.72478162 53.33568081 122.63242771 48.32373047 125.16113281 C46.96049214 128.99097166 47.40404825 131.24779373 49.05419922 134.88378906 C49.44542969 135.75197266 49.83666016 136.62015625 50.23974609 137.51464844 C50.65933594 138.40861328 51.07892578 139.30257812 51.51123047 140.22363281 C51.91148437 141.12146484 52.31173828 142.01929688 52.72412109 142.94433594 C55.61440228 149.24486786 57.78597892 153.36082675 64.47998047 155.89160156 C69.30750015 157.34835106 73.80999314 157.57587052 78.82373047 157.47363281 C80.00902344 157.4784668 80.00902344 157.4784668 81.21826172 157.48339844 C88.06657239 157.42175243 94.63036214 157.14816084 100.27294922 152.98535156 C105.29579036 146.06818177 105.63695076 135.46554464 105.72216797 127.11425781 C105.17767513 124.44517526 104.60011223 123.68936506 102.32373047 122.16113281 C99.75154459 121.61516373 97.36169048 121.23730736 94.76123047 120.97363281 C94.09542969 120.89177734 93.42962891 120.80992188 92.74365234 120.72558594 C83.86006715 119.71781984 75.07625325 120.1023458 66.19873047 120.97363281 Z M-67.67626953 122.16113281 C-68.66626953 122.82113281 -69.65626953 123.48113281 -70.67626953 124.16113281 C-72.43970703 124.37769531 -72.43970703 124.37769531 -74.23876953 124.59863281 C-75.94033203 124.87707031 -75.94033203 124.87707031 -77.67626953 125.16113281 C-80.19638003 128.94129855 -80.25470114 131.79323256 -79.67626953 136.16113281 C-76.5665558 148.22603483 -67.00077727 158.31141966 -57.67626953 166.16113281 C-55.59380669 166.79540983 -55.59380669 166.79540983 -53.67626953 167.16113281 C-53.51771484 168.43085938 -53.35916016 169.70058594 -53.19580078 171.00878906 C-49.46885531 199.12405398 -37.76978503 222.24933304 -15.74267578 240.58300781 C0.46464876 252.96062428 19.84354197 259.73312566 40.32373047 258.16113281 C64.99555764 254.6183478 86.44933499 239.01392057 101.44555664 219.70751953 C109.63101211 208.64690225 116.82441348 194.54316634 117.65185547 180.66894531 C118.37998032 168.46310797 118.37998032 168.46310797 121.35107422 164.36425781 C123.91421362 162.13681463 126.58391458 160.16511244 129.32373047 158.16113281 C136.94756567 150.68114356 144.3158405 142.25237398 144.57373047 131.09863281 C144.67566917 127.36034049 144.67566917 127.36034049 143.15576172 125.46972656 C139.22890902 122.66483178 133.98711134 123.04271564 129.32373047 123.16113281 C125.85797253 123.86687081 122.61470691 124.87240974 119.32373047 126.16113281 C119.34822266 127.29808594 119.37271484 128.43503906 119.39794922 129.60644531 C119.38620066 140.28823064 117.93517763 153.45081353 111.32373047 162.16113281 C101.48214875 171.1110276 88.46968698 170.91546061 75.89404297 170.55175781 C66.57584094 170.05352569 57.75367002 168.09711669 50.32373047 162.16113281 C48.52941475 159.79614029 47.1420126 157.2844639 45.76123047 154.66113281 C45.37845947 153.95859375 44.99568848 153.25605469 44.60131836 152.53222656 C41.41162522 146.57579048 38.70753268 140.48599497 36.32373047 134.16113281 C33.68373047 134.16113281 31.04373047 134.16113281 28.32373047 134.16113281 C28.02080078 134.91136719 27.71787109 135.66160156 27.40576172 136.43457031 C16.76240049 162.43712051 16.76240049 162.43712051 7.88623047 166.53613281 C6.38425068 167.12807328 4.85990521 167.66464114 3.32373047 168.16113281 C2.32857422 168.51949219 1.33341797 168.87785156 0.30810547 169.24707031 C-5.01650302 170.73570129 -10.50492355 170.45009442 -15.98876953 170.41113281 C-17.06578125 170.41886719 -18.14279297 170.42660156 -19.25244141 170.43457031 C-29.38543476 170.41002036 -39.77014556 169.95316088 -47.36376953 162.53613281 C-54.8546694 152.76434997 -54.96805101 137.88401302 -55.67626953 126.16113281 C-57.60771941 125.4364648 -59.54670902 124.73186505 -61.48876953 124.03613281 C-62.56771484 123.64167969 -63.64666016 123.24722656 -64.75830078 122.84082031 C-65.72123047 122.61652344 -66.68416016 122.39222656 -67.67626953 122.16113281 Z M-78.42626953 256.03613281 C-84.34091408 264.2509169 -83.46019785 274.54886788 -82.31689453 284.19238281 C-80.53775536 292.36680602 -75.66829151 298.65506604 -70.67626953 305.16113281 C-70.16966797 305.84175781 -69.66306641 306.52238281 -69.14111328 307.22363281 C-58.98125423 320.01972351 -42.62534716 330.28655741 -26.89892578 334.50878906 C-25.60075928 334.85744019 -25.60075928 334.85744019 -24.27636719 335.21313477 C-20.41663659 336.22496034 -16.54890257 337.19986886 -12.67626953 338.16113281 C-12.36415527 337.54189941 -12.05204102 336.92266602 -11.73046875 336.28466797 C-8.81559015 330.57854139 -5.39506579 326.45202815 -0.67626953 322.16113281 C-0.01626953 321.50113281 0.64373047 320.84113281 1.32373047 320.16113281 C0.70626953 319.82082031 0.08880859 319.48050781 -0.54736328 319.12988281 C-16.96192352 309.73585747 -27.0569042 295.94412137 -32.86376953 277.97363281 C-35.74749105 267.29541713 -36.55423398 256.13588143 -37.67626953 245.16113281 C-52.12983505 244.4692068 -67.77055906 244.89607187 -78.42626953 256.03613281 Z M97.32373047 246.16113281 C97.23736328 247.45664063 97.15099609 248.75214844 97.06201172 250.08691406 C95.24696054 274.23190129 89.84655 296.28286268 71.32373047 313.16113281 C68.42672432 315.36612414 65.48267183 317.35275334 62.32373047 319.16113281 C63.02498047 319.71800781 63.72623047 320.27488281 64.44873047 320.84863281 C65.87185547 321.99332031 65.87185547 321.99332031 67.32373047 323.16113281 C68.29310547 323.88300781 69.26248047 324.60488281 70.26123047 325.34863281 C74.18581453 328.59023731 76.68394151 332.86445503 79.32373047 337.16113281 C104.38481161 330.87204021 125.20257707 317.09749314 138.85107422 294.86816406 C143.80857501 285.75530453 145.81606703 275.17253461 143.51123047 264.97363281 C141.42050831 258.26131429 138.1723779 254.01784959 132.32373047 250.16113281 C122.08626206 245.40372102 108.30024298 242.50229531 97.32373047 246.16113281 Z M-24.67626953 250.16113281 C-23.71410448 261.76455612 -21.62790767 272.20597601 -17.67626953 283.16113281 C-17.24894531 284.45470703 -17.24894531 284.45470703 -16.81298828 285.77441406 C-12.53518151 297.18865679 -2.46719433 305.40010215 8.35839844 310.359375 C23.30224668 316.45572253 37.31548648 316.11735992 52.32373047 310.16113281 C66.88304718 303.33368222 74.54556159 292.7766974 80.32373047 278.16113281 C83.24915656 269.70882412 85.10144451 261.14805058 84.32373047 252.16113281 C80.88945766 253.44293886 77.91189053 254.94401716 74.82373047 256.91113281 C56.37732757 268.08251419 35.73543364 274.16971835 14.32373047 269.16113281 C0.054077 265.34357719 -12.66867965 258.75192882 -24.67626953 250.16113281 Z M150.32373047 300.16113281 C150.09041016 300.66 149.85708984 301.15886719 149.61669922 301.67285156 C137.9108852 324.7122099 115.65927684 338.05529226 92.32373047 347.16113281 C91.30666016 347.57234375 90.28958984 347.98355469 89.24169922 348.40722656 C86.94026183 349.3374579 84.63503697 350.25578234 82.32373047 351.16113281 C81.70066395 354.66415124 81.45786241 357.68722841 82.32373047 361.16113281 C84.67830592 363.18060015 87.06633685 364.40743078 89.83544922 365.79394531 C93.78565905 367.96439028 95.59528843 370.73299267 96.89794922 375.07519531 C98.2366052 381.6333815 97.81178279 388.34771228 94.32373047 394.16113281 C90.17542746 398.7806011 85.71953162 401.76325965 79.45654297 402.49707031 C72.77816037 402.58380255 68.65808956 402.29798272 63.32373047 398.16113281 C58.47985997 393.43382605 56.04695702 388.63608736 55.94873047 381.84863281 C56.05731621 376.47725833 57.14651265 372.51433385 60.32373047 368.16113281 C62.88617285 365.73009774 64.83543146 364.34560133 68.13623047 363.09863281 C70.50827618 361.39458293 70.50827618 361.39458293 70.74169922 358.98535156 C70.97545646 351.29362506 70.46369681 341.52219718 65.84716797 335.11035156 C59.64947002 329.40790345 52.12178231 327.6938636 43.94873047 327.76269531 C43.17996582 327.75982513 42.41120117 327.75695496 41.61914062 327.7539978 C40.00568905 327.75197075 38.39221213 327.75740471 36.77880859 327.77001953 C34.32967414 327.7860938 31.8821895 327.77012538 29.43310547 327.75097656 C27.85497688 327.75295924 26.2768493 327.75680342 24.69873047 327.76269531 C23.61712646 327.75358627 23.61712646 327.75358627 22.51367188 327.74429321 C15.92239677 327.83406473 9.6089874 329.49555747 4.51123047 333.91113281 C3.6971875 334.58402344 3.6971875 334.58402344 2.86669922 335.27050781 C-1.23267035 340.2935328 -2.04810812 345.2900994 -1.96923828 351.62597656 C-1.96499344 352.30414932 -1.9607486 352.98232208 -1.95637512 353.68104553 C-1.93974894 355.82066684 -1.90213127 357.95930229 -1.86376953 360.09863281 C-1.84870175 361.56020763 -1.83501703 363.0217974 -1.82275391 364.48339844 C-1.7898993 368.04295678 -1.73823194 371.60194838 -1.67626953 375.16113281 C-0.86113892 375.53226196 -0.86113892 375.53226196 -0.02954102 375.91088867 C7.10167552 379.28832655 7.10167552 379.28832655 9.26123047 382.72363281 C9.83164062 383.59181641 9.83164062 383.59181641 10.41357422 384.47753906 C13.35245296 389.91383407 12.95334099 396.17629574 12.32373047 402.16113281 C9.98142104 408.36193536 5.64903897 412.57765257 -0.30126953 415.41113281 C-7.46526996 417.00313291 -14.38855126 417.24896433 -20.88720703 413.50488281 C-24.93134911 410.46736125 -28.07206536 406.97374532 -29.67626953 402.16113281 C-30.31842036 394.46584993 -30.50628875 387.51229445 -25.67626953 381.16113281 C-22.36572791 377.93547688 -20.0957768 376.92893572 -15.67626953 375.16113281 C-15.67626953 367.57113281 -15.67626953 359.98113281 -15.67626953 352.16113281 C-18.81126953 351.17113281 -21.94626953 350.18113281 -25.17626953 349.16113281 C-43.48901923 343.16983669 -59.67963783 334.55549981 -73.67626953 321.16113281 C-74.29115234 320.60941406 -74.90603516 320.05769531 -75.53955078 319.48925781 C-81.26613679 314.17077334 -85.38147196 307.63741487 -89.67626953 301.16113281 C-104.41202889 304.24289018 -117.36368038 313.60797006 -128.67626953 323.16113281 C-129.21880371 323.61327148 -129.76133789 324.06541016 -130.3203125 324.53125 C-153.26956555 343.87890423 -168.27520854 372.4018491 -171.67626953 402.16113281 C-171.67626953 410.41113281 -171.67626953 418.66113281 -171.67626953 427.16113281 C-70.69626953 427.16113281 30.28373047 427.16113281 134.32373047 427.16113281 C133.99373047 422.87113281 133.66373047 418.58113281 133.32373047 414.16113281 C132.35219294 388.90115708 141.21433964 364.73536875 158.32373047 346.16113281 C159.39107422 344.90429688 159.39107422 344.90429688 160.47998047 343.62207031 C167.28979327 336.08929794 175.48510063 331.79057926 184.38476562 327.18505859 C186.75451757 325.93364338 189.04720999 324.57430221 191.32373047 323.16113281 C181.02034381 311.82740748 165.18860661 303.59148885 150.32373047 300.16113281 Z M167.32373047 355.16113281 C166.72044922 355.75410156 166.11716797 356.34707031 165.49560547 356.95800781 C150.41133555 373.03684498 146.52773081 393.27034466 147.05029297 414.56738281 C148.0028277 437.86905882 158.06979644 455.09899994 174.82617188 470.80712891 C190.69358027 485.15350109 211.10998401 490.22849526 231.98779297 489.53613281 C253.30888665 488.32341508 272.49987897 477.64692533 287.13623047 462.41113281 C302.35165087 444.57140138 307.78437983 423.16294748 306.32373047 400.16113281 C304.09869577 379.52609734 292.73483778 359.39146285 276.72241211 346.14501953 C243.22849408 319.80817594 196.23268466 325.92552377 167.32373047 355.16113281 Z M68.82373047 375.66113281 C67.01286277 378.67924565 66.62285946 380.76144357 66.81201172 384.25097656 C67.24697159 386.51149559 67.24697159 386.51149559 69.88623047 388.72363281 C73.99284413 390.44094398 76.06965848 390.36511545 80.32373047 389.16113281 C82.97137892 387.4842888 83.27850092 386.3097442 84.19873047 383.28613281 C84.34778315 379.5598157 83.57507034 378.07953635 81.32373047 375.16113281 C77.17577006 373.08715261 72.69261567 373.33980169 68.82373047 375.66113281 Z M-15.67626953 389.16113281 C-17.47047108 392.48040568 -18.42268047 395.42907811 -17.67626953 399.16113281 C-14.33048449 403.04183406 -14.33048449 403.04183406 -9.60205078 404.35644531 C-6.69063281 404.08736787 -4.24147706 403.50755033 -1.73876953 401.97363281 C-0.17570524 399.30722902 0.20025215 397.2480909 0.32373047 394.16113281 C-1.28038802 390.63207215 -2.41786315 389.33340374 -5.67626953 387.16113281 C-9.526701 386.83343652 -12.51934001 386.79343567 -15.67626953 389.16113281 Z " fill="#0C0C0C" transform="translate(182.67626953125,-0.1611328125)"/>
<path d="M0 0 C1.60585493 0.62064937 3.20962617 1.2466918 4.8125 1.875 C5.70582031 2.22304688 6.59914063 2.57109375 7.51953125 2.9296875 C10 4 10 4 13 6 C11.36497572 10.32913984 9.3407989 14.43083782 7.25390625 18.5546875 C6.49686851 20.06020172 5.73987141 21.56573638 4.98291016 23.07128906 C4.39017303 24.24745789 4.39017303 24.24745789 3.78546143 25.4473877 C-1.86710942 36.66789739 -7.49560313 47.89530949 -12.875 59.25 C-14.58161471 62.83415386 -16.2907458 66.41710432 -18 70 C-18.51320801 71.07926758 -19.02641602 72.15853516 -19.55517578 73.27050781 C-21.16785684 76.64602107 -22.80040551 80.01127075 -24.4375 83.375 C-24.93427246 84.42333008 -25.43104492 85.47166016 -25.94287109 86.55175781 C-26.41418457 87.51178711 -26.88549805 88.47181641 -27.37109375 89.4609375 C-27.78286865 90.31478027 -28.19464355 91.16862305 -28.61889648 92.04833984 C-30 94 -30 94 -32.0168457 94.83227539 C-34.72046579 95.06093315 -36.3256305 94.23903226 -38.75 93.0625 C-39.54921875 92.68222656 -40.3484375 92.30195313 -41.171875 91.91015625 C-41.77515625 91.60980469 -42.3784375 91.30945313 -43 91 C-42.36791003 86.88023831 -41.00584583 83.5789075 -39.19140625 79.8359375 C-38.90955475 79.25154907 -38.62770325 78.66716064 -38.33731079 78.06506348 C-37.41849363 76.16533546 -36.49088346 74.27006916 -35.5625 72.375 C-34.91628925 71.04580046 -34.27021291 69.71653557 -33.62426758 68.38720703 C-29.9123256 60.77336997 -26.07360934 53.2406363 -22.06103516 45.78076172 C-17.45842687 37.13474055 -13.21510027 28.3097655 -8.9375 19.5 C-8.55161713 18.70672302 -8.16573425 17.91344604 -7.76815796 17.09613037 C-6.66459971 14.82568266 -5.56405786 12.55380359 -4.46484375 10.28125 C-4.12990906 9.59149078 -3.79497437 8.90173157 -3.44989014 8.19107056 C-2.14499553 5.48339934 -0.95172928 2.85518784 0 0 Z " fill="#0C0C0C" transform="translate(424,362)"/>
<path d="M0 0 C3.95769636 1.60797932 6.68905756 4.34952654 9.67578125 7.3046875 C10.20519821 7.82507599 10.73461517 8.34546448 11.28007507 8.88162231 C12.39295341 9.98003406 13.50307652 11.08124348 14.6105957 12.18505859 C16.31212681 13.87462943 18.03142393 15.54465115 19.75195312 17.21484375 C20.83187272 18.28530591 21.91068831 19.35688322 22.98828125 20.4296875 C23.50586502 20.92773895 24.02344879 21.42579041 24.55671692 21.93893433 C27.95648609 25.38288677 27.95648609 25.38288677 28.14086914 27.99780273 C26.45160411 30.96242129 24.17243324 33.234418 21.7578125 35.60546875 C21.23363739 36.13014236 20.70946228 36.65481598 20.16940308 37.19538879 C19.06167552 38.30077972 17.95026275 39.40248827 16.83544922 40.50073242 C15.12938558 42.18317514 13.43705873 43.87856892 11.74609375 45.57617188 C10.66745701 46.64923253 9.58805524 47.72152486 8.5078125 48.79296875 C8.00146271 49.30022995 7.49511292 49.80749115 6.97341919 50.3301239 C4.64879691 52.60829692 3.13436624 53.95521125 0 55 C-1.36877116 53.76600937 -2.71969166 52.51219377 -4.0625 51.25 C-4.81660156 50.55390625 -5.57070313 49.8578125 -6.34765625 49.140625 C-8 47 -8 47 -7.96875 44.97265625 C-6.78031597 42.55265953 -5.38263007 41.05649974 -3.4375 39.1875 C-2.72464844 38.50042969 -2.01179688 37.81335938 -1.27734375 37.10546875 C2.08575252 33.99619107 5.51212594 30.96840346 9 28 C1.28493655 18.66195543 1.28493655 18.66195543 -8 11 C-7.43040847 7.37386801 -6.07625466 5.74482259 -3.4375 3.25 C-2.79683594 2.63640625 -2.15617187 2.0228125 -1.49609375 1.390625 C-1.00238281 0.93171875 -0.50867188 0.4728125 0 0 Z " fill="#090909" transform="translate(445,382)"/>
<path d="M0 0 C1.12588014 0.95729916 2.2506715 1.91587895 3.375 2.875 C4.00148438 3.40867187 4.62796875 3.94234375 5.2734375 4.4921875 C6.55836651 5.61432007 7.79371975 6.79371975 9 8 C8.69371213 11.54399257 7.10501726 13.25057141 4.62109375 15.671875 C3.61079102 16.66767578 3.61079102 16.66767578 2.58007812 17.68359375 C1.87302734 18.36550781 1.16597656 19.04742187 0.4375 19.75 C-0.27341797 20.44738281 -0.98433594 21.14476562 -1.71679688 21.86328125 C-3.47130714 23.5824658 -5.23243352 25.29425872 -7 27 C-2.61009849 32.28068927 2.07498964 37.00381138 7.12109375 41.66796875 C9 44 9 44 9.0078125 46.06640625 C7.78580285 48.41095966 6.35744394 49.93478028 4.4375 51.75 C3.47650391 52.67039062 3.47650391 52.67039062 2.49609375 53.609375 C2.00238281 54.06828125 1.50867188 54.5271875 1 55 C-5.11779705 49.90743817 -10.82825556 44.45736165 -16.5 38.875 C-17.89605469 37.53501953 -17.89605469 37.53501953 -19.3203125 36.16796875 C-20.63128906 34.87439453 -20.63128906 34.87439453 -21.96875 33.5546875 C-22.76732422 32.77593262 -23.56589844 31.99717773 -24.38867188 31.19482422 C-26 29 -26 29 -26.09985352 27.08154297 C-24.42830408 23.91802898 -21.97334688 21.60778003 -19.43359375 19.140625 C-18.88010757 18.59138367 -18.3266214 18.04214233 -17.75636292 17.47625732 C-15.99033441 15.72699536 -14.21415308 13.98846356 -12.4375 12.25 C-11.23694559 11.064495 -10.0370674 9.87830476 -8.83789062 8.69140625 C-5.89970905 5.78626707 -2.95237926 2.89070663 0 0 Z " fill="#080808" transform="translate(371,382)"/>
<path d="M0 0 C0.99 0.33 1.98 0.66 3 1 C-2 6 -2 6 -3.8125 7.625 C-5.32680994 9.07561063 -5.32680994 9.07561063 -5 12 C-5.99 11.67 -6.98 11.34 -8 11 C-7.43040847 7.37386801 -6.07625466 5.74482259 -3.4375 3.25 C-2.79683594 2.63640625 -2.15617187 2.0228125 -1.49609375 1.390625 C-1.00238281 0.93171875 -0.50867188 0.4728125 0 0 Z " fill="#666666" transform="translate(445,382)"/>
<path d="M0 0 C0.33 0.99 0.66 1.98 1 3 C-1.64 5.64 -4.28 8.28 -7 11 C-7.66 10.67 -8.32 10.34 -9 10 C-6.03 6.7 -3.06 3.4 0 0 Z " fill="#2C2C2C" transform="translate(280,223)"/>
<path d="" fill="#FFFFFF" transform="translate(0,0)"/>
<path d="" fill="#FFFFFF" transform="translate(0,0)"/>
<path d="" fill="#FFFFFF" transform="translate(0,0)"/>
<path d="" fill="#FFFFFF" transform="translate(0,0)"/>
<path d="" fill="#FFFFFF" transform="translate(0,0)"/>
<path d="" fill="#FFFFFF" transform="translate(0,0)"/>
<path d="" fill="#FFFFFF" transform="translate(0,0)"/>
<path d="" fill="#FFFFFF" transform="translate(0,0)"/>
<path d="" fill="#FFFFFF" transform="translate(0,0)"/>
<path d="" fill="#FFFFFF" transform="translate(0,0)"/>
<path d="" fill="#FFFFFF" transform="translate(0,0)"/>
<path d="" fill="#FFFFFF" transform="translate(0,0)"/>
<path d="" fill="#FFFFFF" transform="translate(0,0)"/>
<path d="" fill="#FFFFFF" transform="translate(0,0)"/>
<path d="" fill="#FFFFFF" transform="translate(0,0)"/>
<path d="" fill="#FFFFFF" transform="translate(0,0)"/>
<path d="" fill="#FFFFFF" transform="translate(0,0)"/>
<path d="" fill="#FFFFFF" transform="translate(0,0)"/>
<path d="" fill="#FFFFFF" transform="translate(0,0)"/>
<path d="" fill="#FFFFFF" transform="translate(0,0)"/>
<path d="" fill="#FFFFFF" transform="translate(0,0)"/>
<path d="" fill="#FFFFFF" transform="translate(0,0)"/>
<path d="" fill="#FFFFFF" transform="translate(0,0)"/>
<path d="" fill="#FFFFFF" transform="translate(0,0)"/>
<path d="" fill="#FFFFFF" transform="translate(0,0)"/>
<path d="" fill="#FFFFFF" transform="translate(0,0)"/>
<path d="" fill="#FFFFFF" transform="translate(0,0)"/>
<path d="" fill="#FFFFFF" transform="translate(0,0)"/>
<path d="" fill="#FFFEFF" transform="translate(0,0)"/>
<path d="" fill="#FFFFFF" transform="translate(0,0)"/>
<path d="" fill="#FFFFFF" transform="translate(0,0)"/>
<path d="" fill="#FFFFFF" transform="translate(0,0)"/>
<path d="" fill="#FFFFFF" transform="translate(0,0)"/>
<path d="" fill="#FFFFFF" transform="translate(0,0)"/>
<path d="" fill="#FFFFFF" transform="translate(0,0)"/>
<path d="" fill="#FFFFFF" transform="translate(0,0)"/>
<path d="" fill="#FFFFFF" transform="translate(0,0)"/>
<path d="" fill="#FFFFFF" transform="translate(0,0)"/>
<path d="" fill="#FFFFFF" transform="translate(0,0)"/>
<path d="" fill="#FFFFFF" transform="translate(0,0)"/>
<path d="" fill="#FFFFFF" transform="translate(0,0)"/>
<path d="" fill="#FFFFFF" transform="translate(0,0)"/>
<path d="" fill="#FFFFFF" transform="translate(0,0)"/>
<path d="" fill="#FFFFFF" transform="translate(0,0)"/>
<path d="" fill="#FFFFFF" transform="translate(0,0)"/>
<path d="" fill="#FFFFFF" transform="translate(0,0)"/>
<path d="" fill="#FFFFFF" transform="translate(0,0)"/>
<path d="" fill="#FFFFFF" transform="translate(0,0)"/>
<path d="" fill="#FFFFFF" transform="translate(0,0)"/>
<path d="" fill="#FFFFFF" transform="translate(0,0)"/>
<path d="" fill="#FFFFFF" transform="translate(0,0)"/>
<path d="" fill="#FFFFFF" transform="translate(0,0)"/>
<path d="" fill="#FFFFFF" transform="translate(0,0)"/>
<path d="" fill="#FFFFFF" transform="translate(0,0)"/>
<path d="" fill="#FFFFFF" transform="translate(0,0)"/>
<path d="" fill="#FFFFFF" transform="translate(0,0)"/>
<path d="" fill="#FFFFFF" transform="translate(0,0)"/>
<path d="" fill="#FFFFFF" transform="translate(0,0)"/>
<path d="" fill="#FFFFFF" transform="translate(0,0)"/>
</svg>
