<?xml version="1.0" encoding="UTF-8"?>
<svg version="1.1" xmlns="http://www.w3.org/2000/svg" width="512" height="512">
<path d="M0 0 C1.47982467 -0.00543385 2.95964392 -0.01256353 4.43945312 -0.02124023 C8.42302972 -0.03932683 12.40618749 -0.0324675 16.38977051 -0.01972389 C20.58017007 -0.00951945 24.77053637 -0.01901006 28.9609375 -0.02526855 C35.99485642 -0.03252347 43.02860674 -0.02301418 50.0625 -0.00390625 C58.16740431 0.01785839 66.27190597 0.01080549 74.37680054 -0.01121187 C81.36489277 -0.02942765 88.35286457 -0.03189416 95.3409729 -0.0214572 C99.50179635 -0.01525605 103.66243123 -0.01429258 107.82324219 -0.02760315 C111.73708727 -0.03925157 115.65041875 -0.03097422 119.56420898 -0.00802612 C120.99112093 -0.00278657 122.41807693 -0.00417013 123.8449707 -0.01307678 C135.18024289 -0.0772487 145.71197987 1.31806231 154.875 8.51757812 C155.865 9.23945313 156.855 9.96132812 157.875 10.70507812 C166.2854132 17.92346426 169.59975948 27.84761351 170.875 38.51757812 C171.01469714 41.80068258 171.01434933 45.07971596 171.00871277 48.36543274 C171.01097833 49.34032707 171.01324388 50.3152214 171.01557809 51.31965798 C171.02189438 54.57745665 171.02109025 57.83521347 171.02026367 61.09301758 C171.02325663 63.43247532 171.02665948 65.77193256 171.03044128 68.11138916 C171.03927136 74.46061979 171.04161898 80.80983694 171.04225707 87.15907311 C171.04308748 91.79346489 171.04598775 96.42785367 171.04909355 101.06224438 C171.05739404 113.52976444 171.06113634 125.99727737 171.06042381 138.4648001 C171.06038386 139.17210698 171.0603439 139.87941387 171.06030273 140.6081543 C171.06026185 141.31632961 171.06022097 142.02450493 171.06017885 142.7541401 C171.0597725 154.22827126 171.06934073 165.70236958 171.0834411 177.17649124 C171.09782129 188.97183291 171.10471039 200.76715858 171.10384732 212.56250924 C171.10351593 219.17915487 171.10643363 225.79577024 171.11702538 232.41240883 C171.12671687 238.63649923 171.12677826 244.860517 171.11950874 251.08460999 C171.11846423 253.3654103 171.12081787 255.64621515 171.1268692 257.92700768 C171.13461084 261.04768086 171.12992986 264.16810459 171.12223816 267.28877258 C171.12738172 268.18480597 171.13252529 269.08083936 171.13782471 270.00402528 C171.07126552 282.27909225 168.1806213 293.14744912 159.625 302.33007812 C148.09331486 312.9007895 135.12389118 316.13014348 119.84765625 316.03515625 C118.36635657 316.04058845 116.88506229 316.04771723 115.40377808 316.05639648 C111.41194572 316.0745026 107.42053074 316.06761551 103.42869186 316.05488014 C99.23247989 316.04468601 95.03630141 316.0541635 90.84008789 316.0604248 C83.79599657 316.06768267 76.75207353 316.05816261 69.70800781 316.0390625 C61.58776773 316.01729728 53.46792952 316.02434998 45.34769917 316.04636812 C38.35030101 316.06457541 31.35302316 316.06705452 24.35560894 316.05661345 C20.18753672 316.05040768 16.01965281 316.04946183 11.85159302 316.0627594 C7.93119817 316.07439532 4.01131666 316.06615274 0.09097672 316.04318237 C-1.33957954 316.03793626 -2.77017971 316.03933798 -4.20071793 316.04823303 C-17.28642843 316.12203881 -27.48843728 313.7169433 -37.125 304.51757812 C-45.5998121 295.64000267 -48.74539692 285.78501949 -48.6396637 273.67066956 C-48.64660922 272.63659892 -48.65355475 271.60252829 -48.66071075 270.53712219 C-48.67887761 267.10272937 -48.66874495 263.6690354 -48.65844727 260.23461914 C-48.66551091 257.75988247 -48.67425779 255.28515013 -48.68455505 252.8104248 C-48.70468032 246.80465082 -48.70608929 240.79914715 -48.69792951 234.7933671 C-48.69161045 229.90860717 -48.69278393 225.02390237 -48.69920158 220.13914299 C-48.70010324 219.44193166 -48.70100489 218.74472033 -48.70193387 218.02638138 C-48.70378521 216.60966602 -48.70564778 215.19295067 -48.70752143 213.77623533 C-48.72407148 200.51386789 -48.71540456 187.25160707 -48.69853585 173.98924606 C-48.68384138 161.87645497 -48.69846858 149.763912 -48.72730602 137.65115286 C-48.75675261 125.1889429 -48.767657 112.72684724 -48.75812382 100.26460403 C-48.75710135 98.85301238 -48.75610673 97.44142071 -48.7551403 96.02982903 C-48.75466391 95.33544254 -48.75418752 94.64105605 -48.7536967 93.92562755 C-48.7515395 89.05193708 -48.76129945 84.17835571 -48.77591133 79.30468941 C-48.79533754 72.73406954 -48.78826624 66.16383512 -48.76371193 59.59320831 C-48.75871535 57.18746862 -48.76216363 54.78169366 -48.77486038 52.37598228 C-48.88857961 28.97033652 -48.88857961 28.97033652 -43.125 19.51757812 C-42.65901177 18.74692803 -42.19302355 17.97627794 -41.71291447 17.18227482 C-32.39276177 2.73381467 -15.90009597 -0.09924821 0 0 Z " fill="#00A1FF" transform="translate(64.125,180.482421875)"/>
<path d="M0 0 C1.72582588 -0.00461468 3.45164783 -0.01097139 5.17746162 -0.01890898 C9.89733791 -0.03554752 14.61688907 -0.02738091 19.33676624 -0.0149641 C24.43569409 -0.00589347 29.53456703 -0.01989332 34.63348389 -0.03088379 C44.61335561 -0.0486521 54.59310686 -0.04483653 64.57298326 -0.03323323 C72.68524188 -0.02419255 80.79746679 -0.02297766 88.909729 -0.02732849 C90.06516366 -0.02794142 91.22059832 -0.02855436 92.41104615 -0.02918586 C94.75843224 -0.03046479 97.10581832 -0.03176164 99.45320439 -0.03307623 C121.45459403 -0.04447708 143.45591696 -0.03137606 165.45729566 -0.00987476 C184.32752087 0.00799575 203.19764765 0.00489151 222.06787109 -0.0135498 C243.99158028 -0.03496523 265.91523102 -0.04337849 287.8389492 -0.03110075 C290.17760594 -0.02982658 292.51626268 -0.0285691 294.85491943 -0.02732849 C296.58082752 -0.02640284 296.58082752 -0.02640284 298.34160244 -0.02545848 C306.44228783 -0.02200761 314.54293609 -0.02782829 322.64361572 -0.0372467 C332.5182667 -0.0484755 342.39279052 -0.04540803 352.26742697 -0.02412373 C357.30375001 -0.01362526 362.33986118 -0.00947105 367.37618256 -0.02272034 C371.99018845 -0.03467487 376.60378689 -0.02803128 381.21775603 -0.00681013 C382.88315294 -0.00235703 384.54858455 -0.00458117 386.21395898 -0.01431328 C399.81152694 -0.08765401 410.70157321 1.78907019 420.88232422 11.50793457 C431.01605231 22.12326558 432.50779168 33.53728169 432.44873047 47.69152832 C432.45398015 49.23890045 432.46026149 50.78626938 432.46751404 52.33363342 C432.47786004 55.56026378 432.47344139 58.78645154 432.45874023 62.01306152 C432.44156134 66.11607382 432.46506578 70.21768432 432.50022984 74.32054043 C432.52235484 77.51138817 432.52072627 80.70190822 432.51246452 83.89280891 C432.51165322 85.40404867 432.51835678 86.91531452 432.53323555 88.42648125 C432.64025349 101.25929913 430.15964678 113.04670033 420.88232422 122.50793457 C409.18731639 132.86333241 395.70294118 134.10488436 380.76538086 134.01586914 C379.06400298 134.02048634 377.36262911 134.02684473 375.66126347 134.03477812 C371.01817441 134.05138207 366.37541679 134.043266 361.73232698 134.03083324 C356.71246953 134.02174828 351.69266736 134.03576952 346.67282104 134.04675293 C336.85163791 134.06450604 327.03057731 134.06071247 317.20938945 134.04910237 C309.22496078 134.04005568 301.24056636 134.03884939 293.25613403 134.04319763 C292.11819997 134.04381056 290.9802659 134.0444235 289.80784899 134.045055 C287.49589943 134.04633395 285.18394988 134.0476308 282.87200034 134.04894537 C261.21104244 134.06034177 239.55015235 134.0472522 217.88920557 134.0257439 C199.31754191 134.00787379 180.74597827 134.01097816 162.17431641 134.02941895 C140.58897347 134.05084224 119.0036899 134.05924322 97.41833782 134.04696989 C95.11506336 134.04569574 92.81178889 134.04443826 90.5085144 134.04319763 C88.80879041 134.04227198 88.80879041 134.04227198 87.07472855 134.04132763 C79.10320008 134.03787911 71.13170938 134.04369232 63.16018677 134.05311584 C53.44081541 134.06435341 43.72157321 134.0612588 34.00221658 134.03999287 C29.04664139 134.02950616 24.09128128 134.02531999 19.13570786 134.03858948 C14.59322479 134.05056856 10.05115479 134.04386047 5.50870883 134.02267927 C3.87159978 134.01823648 2.23445533 134.02042677 0.59736931 134.03018242 C-13.52630484 134.10784599 -26.17312086 132.19884047 -37.11767578 122.50793457 C-46.39499834 113.04670033 -48.87560505 101.25929913 -48.76858711 88.42648125 C-48.7576946 87.32017955 -48.7576946 87.32017955 -48.74658203 86.19152832 C-48.74741325 84.64319187 -48.74988211 83.09485553 -48.75389099 81.54652405 C-48.75672961 78.32155392 -48.74223859 75.09728574 -48.71459961 71.87243652 C-48.68049057 67.76835595 -48.6865628 63.66552597 -48.70526218 59.56138515 C-48.71590133 56.37056816 -48.70683272 53.18003514 -48.69187737 49.98924446 C-48.68674754 48.47720245 -48.68711306 46.96513013 -48.69342232 45.45309258 C-48.72838999 32.04511963 -46.60528445 21.44643949 -37.11767578 11.50793457 C-26.18237271 1.06875111 -14.43174467 -0.08433623 0 0 Z " fill="#0066FF" transform="translate(64.11767578125,15.4920654296875)"/>
<path d="M0 0 C1.38277367 -0.00271673 2.76554589 -0.00628146 4.14831543 -0.01062012 C7.87146112 -0.01966539 11.5944948 -0.01623266 15.31764221 -0.00986195 C19.2335742 -0.0047609 23.14949728 -0.00950472 27.06542969 -0.01263428 C33.6386892 -0.01626204 40.21190361 -0.01150617 46.78515625 -0.00195312 C54.35998016 0.00892913 61.93469636 0.00540271 69.50951767 -0.00560594 C76.03980296 -0.01471283 82.57005602 -0.01594751 89.10034561 -0.0107286 C92.98891207 -0.00762754 96.87742809 -0.00714782 100.76599121 -0.01380157 C104.42359909 -0.01962417 108.08106952 -0.01548934 111.73866272 -0.00401306 C113.70333676 -0.00015308 115.66802257 -0.00600997 117.63269043 -0.01226807 C131.25728618 0.05208345 144.3751321 1.82777916 154.765625 11.50878906 C162.27479568 19.80743246 166.10627361 28.70575926 166.19702148 39.93139648 C166.205345 40.66416809 166.21366852 41.3969397 166.22224426 42.1519165 C166.24618669 44.55608561 166.25509807 46.9599824 166.26171875 49.36425781 C166.27069898 51.05186537 166.27982105 52.73947218 166.28907776 54.42707825 C166.30552894 57.95995001 166.31326045 61.49272746 166.31616211 65.02563477 C166.32153351 69.52322162 166.35917829 74.01990509 166.40490627 78.51723766 C166.43484956 82.00312933 166.44188943 85.48880827 166.44288826 88.97481728 C166.44705851 90.63121986 166.45936228 92.287625 166.48040581 93.94389915 C166.64112582 107.69040328 164.53922321 118.63042911 154.62109375 128.93066406 C146.01662091 136.2672389 135.82179877 141.49127243 124.35235596 141.5262146 C122.44334 141.53900955 122.44334 141.53900955 120.49575806 141.55206299 C119.10296618 141.5513641 117.71017441 141.55044111 116.31738281 141.54931641 C114.83667667 141.55530705 113.35597363 141.56211383 111.87527466 141.56967163 C107.86679714 141.58728591 103.8584051 141.59202512 99.84989262 141.5933032 C97.34096713 141.59472814 94.83206314 141.59900426 92.32314301 141.60429764 C83.5572116 141.62278395 74.79134088 141.63097015 66.02539062 141.62939453 C57.87572251 141.62819404 49.72631961 141.6492817 41.57671857 141.68088186 C34.56243823 141.70710303 27.5482442 141.71775936 20.53391528 141.71648371 C16.35234156 141.71597572 12.17100363 141.72156793 7.98947906 141.74283981 C4.052764 141.76232066 0.11650724 141.76228019 -3.82022476 141.74780655 C-5.25724336 141.74572937 -6.69429139 141.75035366 -8.13125992 141.76252747 C-22.66857812 141.87761515 -32.18712542 138.51034562 -42.82421875 128.67285156 C-50.90721941 120.24020456 -53.21636483 108.87804661 -53.25463867 97.56420898 C-53.26101852 96.27564499 -53.26739838 94.98708099 -53.27397156 93.6594696 C-53.27550073 92.26939939 -53.27661443 90.87932867 -53.27734375 89.48925781 C-53.28056295 88.04348214 -53.2839275 86.59770678 -53.28742981 85.15193176 C-53.29339792 82.12854254 -53.29527212 79.1051818 -53.29467773 76.08178711 C-53.29457628 72.23225243 -53.30822176 68.38290288 -53.32544994 64.53341198 C-53.33663941 61.5486011 -53.33859482 58.56383398 -53.33806801 55.57900429 C-53.33923794 54.16101761 -53.34360338 52.74302943 -53.35140038 51.32506371 C-53.42485657 36.58650328 -51.87495672 23.22684077 -41.484375 11.88378906 C-29.59905508 1.01721085 -15.36368447 -0.04893824 0 0 Z " fill="#A7D0FF" transform="translate(330.109375,354.7412109375)"/>
<path d="M0 0 C1.47923113 -0.00599246 2.95845914 -0.01279964 4.43768311 -0.02035522 C8.43790442 -0.03795067 12.43804004 -0.0427079 16.43829632 -0.0439868 C18.94304725 -0.04541276 21.4477767 -0.04969078 23.95252228 -0.05498123 C32.70664339 -0.073461 41.46070378 -0.08165453 50.21484375 -0.08007812 C58.34917604 -0.07887767 66.4832426 -0.09996634 74.6175077 -0.13156545 C81.62248208 -0.15779883 88.62737005 -0.16844245 95.63239312 -0.16716731 C99.8067182 -0.16665969 103.98080697 -0.17223084 108.1550827 -0.19352341 C112.08524806 -0.21302511 116.01495457 -0.21294981 119.94513702 -0.19849014 C121.37851133 -0.19641555 122.81191528 -0.20102145 124.24523926 -0.21321106 C137.75212909 -0.3205389 148.962012 2.25873375 159.32910156 11.29052734 C168.57287953 20.69683328 171.08766169 32.47510909 170.98001289 45.24791527 C170.97275122 45.97740694 170.96548954 46.70689861 170.95800781 47.45849609 C170.95883892 48.98920358 170.96130737 50.51991095 170.96531677 52.0506134 C170.96815449 55.2369009 170.95366997 58.42247753 170.92602539 61.60864258 C170.8918576 65.67032544 170.89800871 69.73074667 170.91668797 73.79249096 C170.9273064 76.9454837 170.91827802 80.09818797 170.90330315 83.25115395 C170.89816217 84.74810235 170.89855287 86.24508138 170.9048481 87.74202538 C170.92653494 95.99053332 170.66447572 103.05033193 166.32910156 110.29052734 C165.75160156 111.30115234 165.17410156 112.31177734 164.57910156 113.35302734 C156.46670688 123.9442093 145.71905847 131.09997427 132.32910156 133.29052734 C127.59309469 133.58710383 122.86061876 133.58503528 118.1171875 133.58105469 C116.68721672 133.58704765 115.25724915 133.59385495 113.82728577 133.60140991 C109.9613571 133.61900034 106.0955171 133.62376237 102.22955227 133.62504148 C99.80855589 133.62646774 97.38758172 133.63074632 94.96659088 133.63603592 C86.50424277 133.6545141 78.04195746 133.66270942 69.57958984 133.66113281 C61.71791156 133.65993243 53.85650826 133.68102008 45.99489951 133.71262014 C39.22346842 133.73885862 32.45212671 133.74949693 25.68064523 133.74822199 C21.64604521 133.74771453 17.61168974 133.75327747 13.57714081 133.77457809 C9.77829455 133.7940885 5.97992289 133.79399876 2.18105888 133.77954483 C0.14137824 133.77649113 -1.89830312 133.79304357 -3.93791199 133.8104248 C-17.14727321 133.7211901 -27.83629449 130.28880277 -37.67089844 121.29052734 C-45.5789366 112.31266318 -48.75065265 102.2655102 -48.83203125 90.3996582 C-48.84163879 89.26084702 -48.85124634 88.12203583 -48.86114502 86.94871521 C-48.8653949 85.72991165 -48.86964478 84.51110809 -48.87402344 83.25537109 C-48.87972351 81.98512589 -48.88542358 80.71488068 -48.89129639 79.40614319 C-48.90073154 76.7188866 -48.90763553 74.03174124 -48.91113281 71.34448242 C-48.91658753 67.93790981 -48.94056502 64.53174293 -48.96910477 61.12529659 C-48.99247137 57.83535332 -48.99419726 54.54538562 -48.99902344 51.25537109 C-49.01137024 50.05073715 -49.02371704 48.84610321 -49.03643799 47.60496521 C-49.0008111 33.82387591 -46.51848226 21.80714481 -36.97558594 11.45068359 C-25.97761727 1.39905176 -14.36265899 -0.01164246 0 0 Z " fill="#A8D0FF" transform="translate(325.6708984375,180.70947265625)"/>
</svg>
